<svg width="53" height="28" viewBox="0 0 53 28" fill="none" xmlns="http://www.w3.org/2000/svg">
<path d="M0 28V0H14.3363C15.8831 0 17.209 0.285715 18.3139 0.857144C19.4465 1.42857 20.3028 2.23129 20.8829 3.26531C21.4906 4.27211 21.7944 5.46939 21.7944 6.85714C21.7944 8.21769 21.5596 9.33333 21.09 10.2041C20.6481 11.0748 20.0404 11.7551 19.2669 12.2449C18.5211 12.7347 17.7062 13.1156 16.8223 13.3878V13.551C17.5958 13.7143 18.3139 13.9592 18.9769 14.2857C19.6675 14.6122 20.2752 15.0612 20.8 15.6327C21.3248 16.1769 21.7254 16.8571 22.0016 17.6735C22.3055 18.4626 22.4574 19.415 22.4574 20.5306C22.4574 22.0272 22.1397 23.3333 21.5044 24.449C20.8691 25.5646 19.9575 26.4354 18.7697 27.0612C17.6096 27.6871 16.2146 28 14.5849 28H0ZM7.87251 21.5102H12.0159C12.5408 21.5102 12.9551 21.4014 13.259 21.1837C13.5628 20.9388 13.77 20.6259 13.8805 20.2449C14.0186 19.8639 14.0877 19.4694 14.0877 19.0612C14.0877 18.4626 13.991 18 13.7976 17.6735C13.6319 17.3197 13.3833 17.0748 13.0518 16.9388C12.7479 16.7755 12.4027 16.6939 12.0159 16.6939H7.87251V21.5102ZM7.87251 10.7347H11.5187C11.9883 10.7347 12.375 10.6531 12.6789 10.4898C12.9827 10.2993 13.2037 10.0272 13.3418 9.67347C13.5076 9.29252 13.5904 8.84354 13.5904 8.32653C13.5904 7.42857 13.3833 6.81633 12.9689 6.4898C12.5822 6.13605 12.0988 5.95918 11.5187 5.95918H7.87251V10.7347Z" fill="black"/>
<path d="M24.5761 4.60657L53 2.15759V9.13718L37.2135 10.4841V10.6474L53 12.28V17.3413L37.2135 18.9739V19.1372L53 20.4841L53 26.6474L24.5761 24.1984V15.9127L38.208 14.4841V14.3209L24.5761 12.8923V4.60657Z" fill="black"/>
</svg>
